<?xml version="1.0" encoding="utf-8"?>
<!-- Generated by IcoMoon.io -->
<!DOCTYPE svg PUBLIC "-//W3C//DTD SVG 1.1//EN" "http://www.w3.org/Graphics/SVG/1.1/DTD/svg11.dtd">
<svg version="1.1" xmlns="http://www.w3.org/2000/svg" xmlns:xlink="http://www.w3.org/1999/xlink" width="20" height="20" viewBox="0 0 20 20">
<path d="M6 0h-2c-0.552 0-1 0.448-1 1v2c0 0.552 0.448 1 1 1h2c0.552 0 1-0.448 1-1v-2c0-0.552-0.448-1-1-1zM11 0h-2c-0.552 0-1 0.448-1 1v2c0 0.552 0.448 1 1 1h2c0.552 0 1-0.448 1-1v-2c0-0.552-0.448-1-1-1zM16 0h-2c-0.552 0-1 0.448-1 1v2c0 0.552 0.448 1 1 1h2c0.552 0 1-0.448 1-1v-2c0-0.552-0.448-1-1-1zM6 5h-2c-0.552 0-1 0.448-1 1v2c0 0.552 0.448 1 1 1h2c0.552 0 1-0.448 1-1v-2c0-0.552-0.448-1-1-1zM11 5h-2c-0.552 0-1 0.448-1 1v2c0 0.552 0.448 1 1 1h2c0.552 0 1-0.448 1-1v-2c0-0.552-0.448-1-1-1zM16 5h-2c-0.552 0-1 0.448-1 1v2c0 0.552 0.448 1 1 1h2c0.552 0 1-0.448 1-1v-2c0-0.552-0.448-1-1-1zM6 10h-2c-0.552 0-1 0.448-1 1v2c0 0.552 0.448 1 1 1h2c0.552 0 1-0.448 1-1v-2c0-0.552-0.448-1-1-1zM11 10h-2c-0.552 0-1 0.448-1 1v2c0 0.552 0.448 1 1 1h2c0.552 0 1-0.448 1-1v-2c0-0.552-0.448-1-1-1zM11 16h-2c-0.552 0-1 0.448-1 1v2c0 0.552 0.448 1 1 1h2c0.552 0 1-0.448 1-1v-2c0-0.552-0.448-1-1-1zM16 10h-2c-0.552 0-1 0.448-1 1v2c0 0.552 0.448 1 1 1h2c0.552 0 1-0.448 1-1v-2c0-0.552-0.448-1-1-1z" fill="#444444"></path>
</svg>
