<?xml version="1.0" encoding="utf-8"?>
<!-- Generated by IcoMoon.io -->
<!DOCTYPE svg PUBLIC "-//W3C//DTD SVG 1.1//EN" "http://www.w3.org/Graphics/SVG/1.1/DTD/svg11.dtd">
<svg version="1.1" xmlns="http://www.w3.org/2000/svg" xmlns:xlink="http://www.w3.org/1999/xlink" width="22" height="22" viewBox="0 0 22 22">
<path d="M11 22c-6.075 0-11-4.925-11-11s4.925-11 11-11 11 4.925 11 11-4.925 11-11 11zM11 2c-4.971 0-9 4.029-9 9s4.029 9 9 9 9-4.029 9-9-4.029-9-9-9zM12 12.858c0 0.548 0 1.142 0 1.142h-2c0 0 0-1.447 0-2s0.448-1 1-1v0c1.104 0 2-0.896 2-2s-0.896-2-2-2-2 0.896-2 2c0 0.366 0.105 0.705 0.277 1h-2.135c-0.084-0.321-0.142-0.653-0.142-1 0-2.209 1.791-4 4-4s4 1.791 4 4c0 1.861-1.277 3.412-3 3.858zM12 17h-2v-2h2v2z" fill="#444444"></path>
</svg>
